Coordinates
version=1
nRows=8
nColumns=40
inDegrees=yes

Units are S.I. units (second, meters, Newtons, ...)
If the header above contains a line with 'inDegrees', this indicates whether rotational values are in degrees (yes) or radians (no).

endheader
time	pelvis_tilt	pelvis_list	pelvis_rotation	pelvis_tx	pelvis_ty	pelvis_tz	hip_flexion_r	hip_adduction_r	hip_rotation_r	knee_angle_r	knee_angle_r_beta	ankle_angle_r	subtalar_angle_r	mtp_angle_r	hip_flexion_l	hip_adduction_l	hip_rotation_l	knee_angle_l	knee_angle_l_beta	ankle_angle_l	subtalar_angle_l	mtp_angle_l	lumbar_extension	lumbar_bending	lumbar_rotation	arm_flex_r	arm_add_r	arm_rot_r	elbow_flex_r	pro_sup_r	wrist_flex_r	wrist_dev_r	arm_flex_l	arm_add_l	arm_rot_l	elbow_flex_l	pro_sup_l	wrist_flex_l	wrist_dev_l
      6.93500000	     -5.30758750	     -1.67304731	     -1.66948335	     -0.19616404	      1.46388405	     -0.91045018	     -4.37760894	     -9.59895481	    -24.11848472	      7.17445741	      0.12521790	    -38.50215242	      0.00000000	      0.00000000	     -3.29943367	    -15.36501087	    -21.95205145	      8.83027638	      0.15411740	    -37.91493775	      0.00000000	      0.00000000	     -2.49452632	      2.33565555	      2.30750205	    -36.59594884	    -57.01688435	     32.85753329	    102.96433342	     87.83459252	      0.00000000	      0.00000000	    -31.82839381	    -56.53025538	     34.15048772	    102.87158295	     87.70954933	      0.00000000	      0.00000000
      6.94000000	     -5.44374454	     -1.69212683	     -1.73300786	     -0.19743616	      1.46339352	     -0.90992316	     -3.99386071	     -9.61522617	    -22.89531342	      7.07341485	      0.12345438	    -38.49588837	      0.00000000	      0.00000000	     -3.01052598	    -15.52408783	    -21.30049239	      8.48250444	      0.14804763	    -38.01513994	      0.00000000	      0.00000000	     -2.58391672	      2.27751823	      2.29806537	    -36.49235520	    -56.94372783	     32.84847290	    102.96919365	     87.79208705	      0.00000000	      0.00000000	    -31.86840637	    -56.46597636	     34.02655521	    102.91955015	     87.61352774	      0.00000000	      0.00000000
      6.94500000	     -5.68473186	     -1.70713288	     -1.72074738	     -0.19867197	      1.46245146	     -0.90952283	     -3.46421119	     -9.66131816	    -22.15922591	      7.09251232	      0.12378769	    -38.40320399	      0.00000000	      0.00000000	     -2.52237218	    -15.71146332	    -20.69812769	      8.28962693	      0.14468128	    -38.03698775	      0.00000000	      0.00000000	     -2.51330971	      2.22613007	      2.28823650	    -36.45861288	    -56.86493608	     32.90506234	    102.89281958	     87.85388920	      0.00000000	      0.00000000	    -31.75141430	    -56.49971306	     34.20122023	    102.94153452	     87.70428411	      0.00000000	      0.00000000
      6.95000000	     -5.89343116	     -1.82678684	     -1.73027102	     -0.19974910	      1.46131491	     -0.90902132	     -3.03387567	     -9.56368549	    -21.40851686	      6.95941347	      0.12146468	    -38.34578667	      0.00000000	      0.00000000	     -2.10864424	    -16.00087567	    -20.21377933	      8.01887190	      0.13995572	    -38.03208143	      0.00000000	      0.00000000	     -2.50737371	      2.28017810	      2.21981227	    -36.39632180	    -56.79927898	     32.92331979	    102.82828551	     87.83750722	      0.00000000	      0.00000000	    -31.66507508	    -56.58452066	     34.36633976	    103.02740326	     87.74035542	      0.00000000	      0.00000000
      6.95500000	     -6.14923142	     -1.83400877	     -1.73217596	     -0.20080283	      1.45993046	     -0.90860233	     -2.61828868	     -9.55993706	    -20.53101646	      6.67045557	      0.11642141	    -38.27523511	      0.00000000	      0.00000000	     -1.66570624	    -16.14299160	    -19.43180519	      7.67976455	      0.13403718	    -38.03951301	      0.00000000	      0.00000000	     -2.40622079	      2.22279106	      2.25348694	    -36.40794883	    -56.69556385	     33.00773163	    102.68433694	     87.83446696	      0.00000000	      0.00000000	    -31.56891810	    -56.59041658	     34.54811200	    102.96094246	     87.75559553	      0.00000000	      0.00000000
      6.96000000	     -6.31918950	     -1.84572953	     -1.70178650	     -0.20192480	      1.45832772	     -0.90817484	     -2.28748592	     -9.58143078	    -19.78426619	      6.41868327	      0.11202716	    -38.17723810	      0.00000000	      0.00000000	     -1.27871084	    -16.29707211	    -18.79970952	      7.35511061	      0.12837090	    -37.99247122	      0.00000000	      0.00000000	     -2.44171535	      2.15304424	      2.15530795	    -36.29914121	    -56.61229650	     33.07432670	    102.55433406	     87.83390051	      0.00000000	      0.00000000	    -31.47913476	    -56.69060161	     34.84099422	    102.96263971	     87.75561353	      0.00000000	      0.00000000
      6.96500000	     -6.54373145	     -1.86398513	     -1.70275715	     -0.20326821	      1.45648265	     -0.90771831	     -1.83094044	     -9.60303304	    -19.12505816	      6.24970393	      0.10907791	    -38.07088674	      0.00000000	      0.00000000	     -0.83003163	    -16.46603921	    -18.10331013	      7.03404999	      0.12276733	    -37.99705217	      0.00000000	      0.00000000	     -2.43625025	      2.10932346	      2.20703864	    -36.26935195	    -56.48213417	     33.18477368	    102.35370109	     87.83159132	      0.00000000	      0.00000000	    -31.25977750	    -56.76864790	     34.97400547	    102.94482149	     87.75645636	      0.00000000	      0.00000000
      6.97000000	     -6.62641049	     -1.90577901	     -1.59347378	     -0.20478756	      1.45449294	     -0.90738178	     -1.57308557	     -9.61167170	    -18.55919359	      6.03596762	      0.10534751	    -37.95458042	      0.00000000	      0.00000000	     -0.44567977	    -16.67680347	    -17.33457333	      6.81827979	      0.11900143	    -38.05259124	      0.00000000	      0.00000000	     -2.61981969	      2.07343935	      2.08716221	    -36.08557581	    -56.42946834	     33.34219536	    102.19956104	     87.82481081	      0.00000000	      0.00000000	    -30.95118464	    -56.94889370	     35.39585022	    102.95359346	     87.75571834	      0.00000000	      0.00000000
